<?xml version="1.0" encoding="UTF-8"?>
<svg width="111.17mm" height="115.01mm" version="1.1" viewBox="0 0 111.17 115.01" xmlns="http://www.w3.org/2000/svg" xmlns:cc="http://creativecommons.org/ns#" xmlns:dc="http://purl.org/dc/elements/1.1/" xmlns:rdf="http://www.w3.org/1999/02/22-rdf-syntax-ns#">
 <metadata>
  <rdf:RDF>
   <cc:Work rdf:about="">
    <dc:format>image/svg+xml</dc:format>
    <dc:type rdf:resource="http://purl.org/dc/dcmitype/StillImage"/>
    <dc:title/>
   </cc:Work>
  </rdf:RDF>
 </metadata>
 <g transform="translate(-37.515 -19.18)">
  <path d="m58.877 134.02c-1.7021-0.71568-4.9024-5.1777-7.6116-10.613-1.5596-3.1287-4.142-10.464-5.2051-14.786-0.86522-3.5171-2.1836-6.5841-3.3177-7.7182-0.52159-0.5216-0.89979-0.63054-2.189-0.63054-1.2096 0-1.6631-0.11559-2.0258-0.51638-0.63211-0.69847-0.82267-3.3744-0.43103-6.0528 0.26569-1.8171 0.24335-2.4773-0.15529-4.5896-0.35737-1.8936-0.45489-3.6548-0.41948-7.5756 0.0489-5.4174 0.23188-6.4591 2.2394-12.751 1.7973-5.633 7.9291-16.045 12.951-21.99 2.7884-3.3012 2.7617-3.2223 3.1018-9.2028 0.20129-3.5402 0.20235-3.5446 1.037-4.2903 1.5396-1.3756 6.0133-2.2584 13.283-2.621 6.7839-0.33839 9.1568-0.63985 11.414-1.45 10.489-3.7647 24.046-7.9602 28.197-8.7261 4.4415-0.81946 14.211-1.3291 25.476-1.3291 7.3843 0 8.8062 0.06424 10.066 0.45474 2.3628 0.73219 3.0574 1.791 3.3358 5.0849 0.13571 1.6054 0.0709 2.1036-0.4173 3.2076-0.90602 2.0488-3.1436 4.7478-6.6836 8.0617-4.8998 4.5869-5.9161 5.4059-10.99 8.8556-2.5684 1.7462-4.9156 3.5108-5.2161 3.9211-0.50544 0.69033-0.55814 1.2345-0.70461 7.276-0.0871 3.5914-0.28057 6.894-0.43001 7.3391-0.83004 2.4721-1.8977 3.4146-3.1242 2.7582-0.77698-0.41582-2.0719-2.2964-3.7384-5.429-1.2525-2.3544-2.1516-3.2978-3.1432-3.2978-0.33047 0-2.9636 1.1787-5.8513 2.6193-5.2826 2.6354-7.7972 3.7358-16.713 7.314-5.8609 2.3521-6.6901 2.8224-9.2284 5.2335-2.213 2.1022-2.9356 3.3359-4.7487 8.1086-1.2917 3.4002-2.1622 4.838-4.6189 7.6298-1.7979 2.0431-2.7492 2.5514-4.4691 2.388l-0.92604-0.088-0.0776-1.7589c-0.0549-1.2437 0.12425-2.5406 0.61161-4.4279 0.60685-2.3499 0.64668-2.7564 0.33325-3.4005-0.53014-1.0894-1.9508-0.97043-4.813 0.40296-2.7577 1.3232-4.2073 2.298-5.8283 3.919-2.9666 2.9666-3.21 5.8387-0.59196 6.9875 1.6231 0.71221 5.2034 1.1617 7.424 0.93215 3.4115-0.35272 16.896-0.29867 17.554 0.0704 0.838 0.46949 1.1948 1.275 0.98603 2.2257-0.23711 1.0796-3.9519 4.932-7.3961 7.6702-2.8596 2.2734-4.7236 4.4068-7.467 8.546-2.8759 4.3392-5.9306 12.67-7.0594 19.254-0.21883 1.2762-0.46959 2.4364-0.55724 2.5783-0.35931 0.58139-1.0739 0.73722-1.8616 0.406zm-4.3798-51.329c0.98883-0.51134 1.5893-1.4821 1.7808-2.8786 0.12466-0.90953-0.0407-1.7208-0.79276-3.8886-0.92188-2.6575-0.94141-2.7931-0.65356-4.5361 0.38515-2.3321-0.0912-3.6713-2.002-5.6284-2.926-2.997-5.7977-2.1197-8.694 2.656-1.276 2.104-1.8672 4.6374-1.7231 7.3831 0.21491 4.0932 1.6982 5.8229 5.6518 6.5909 3.8991 0.75741 5.4142 0.82849 6.4328 0.30179zm18.113-19.593c1.2166-0.57733 2.1273-2.091 2.5467-4.233 0.66356-3.3891 0.85377-3.9351 2.1931-6.2953 1.3274-2.3391 1.3824-2.515 1.3824-4.4204 0-1.8233-0.0791-2.1132-0.97512-3.5719-0.53631-0.87312-1.5569-2.2423-2.268-3.0427-0.71111-0.80036-1.5124-1.832-1.7806-2.2926-1.2181-2.0915-3.2347-1.6446-6.3965 1.4176-2.2319 2.1616-6.0768 5.4723-7.3652 6.3419-2.1858 1.4753-2.9657 1.9415-3.2486 1.9415-0.58 0-1.117-1.5339-1.117-3.1905v-1.6293l-1.1481 1.2854c-3.0191 3.3802-2.923 3.2315-2.5778 3.9892 0.17463 0.38326 0.54573 1.806 0.82466 3.1617 0.56193 2.731 1.1587 4.0892 2.4357 5.5436 0.9742 1.1096 1.657 1.4333 5.3136 2.5196 1.4415 0.42824 3.3514 1.1498 4.2442 1.6036 0.89283 0.45372 2.0996 0.98356 2.6817 1.1774 1.3529 0.45058 3.9835 0.29747 5.2549-0.30585zm22.825-0.77189c1.0001-0.20641 2.5328-0.51816 3.4059-0.69277 0.87313-0.17462 2.0458-0.54998 2.606-0.83413 1.4132-0.71685 3.2495-2.468 4.0934-3.9034 0.67965-1.1561 0.71539-1.4078 0.86608-6.1006 0.15583-4.8533 0.16424-4.908 0.99218-6.4534 0.45926-0.85725 0.83502-1.8019 0.83502-2.0993 0-0.89385-1.0038-2.6845-1.8595-3.3172-1.9964-1.476-6.5863-2.4543-9.4796-2.0204-1.5587 0.23374-2.7098 1.3747-3.3365 3.307-0.26287 0.81054-1.5653 3.0981-2.94 5.1638-3.2949 4.9511-3.6274 5.7352-3.7636 8.8755-0.0939 2.1641-0.0268 2.7226 0.46358 3.8626 0.94448 2.1955 3.8642 4.5877 5.5994 4.5877 0.38449 0 1.5174-0.16888 2.5175-0.3753zm34.504-28.462c1.0611-0.2948 2.7313-1.883 3.15-2.9956 0.88675-2.356-0.60423-5.6175-2.978-6.5144-2.0563-0.77691-5.0159 0.28425-6.1122 2.1916-1.2807 2.228-1.1014 4.1785 0.55258 6.0092 1.3095 1.4495 3.2155 1.9126 5.3877 1.3092zm-12.843-2.5278c1.7074-0.84123 4.2698-3.2065 5.5672-5.1389 1.0825-1.6124 3.6688-3.4266 4.9018-3.4385 1.2488-0.01205 2.1004-0.81134 2.1004-1.9714 0-1.241-0.48906-1.549-2.1688-1.366-0.77168 0.08408-4.201 0.27659-7.6208 0.42781-7.0558 0.312-11.792 1.0333-16.388 2.496-1.5368 0.48906-3.8213 1.1962-5.0766 1.5714-1.9591 0.58558-2.3262 0.78797-2.5916 1.4288-0.39242 0.94737-0.0354 1.9716 0.90105 2.5852 0.58898 0.38591 1.1226 0.42095 3.9543 0.25962 3.7228-0.21209 4.0318-0.11978 7.2634 2.1705 2.1493 1.5232 3.4009 1.9238 5.7199 1.831 1.4144-0.05664 2.2268-0.25881 3.4379-0.85548z" stroke-width=".26458"/>
 </g>
</svg>
