<?xml version="1.0" encoding="UTF-8"?>
<svg width="156.1mm" height="156.13mm" version="1.1" viewBox="0 0 156.1 156.13" xmlns="http://www.w3.org/2000/svg" xmlns:cc="http://creativecommons.org/ns#" xmlns:dc="http://purl.org/dc/elements/1.1/" xmlns:rdf="http://www.w3.org/1999/02/22-rdf-syntax-ns#">
 <metadata>
  <rdf:RDF>
   <cc:Work rdf:about="">
    <dc:format>image/svg+xml</dc:format>
    <dc:type rdf:resource="http://purl.org/dc/dcmitype/StillImage"/>
    <dc:title/>
   </cc:Work>
  </rdf:RDF>
 </metadata>
 <g transform="translate(-35.513 -2.077)">
  <g transform="translate(-.26727 .26727)" stroke-width=".26458">
   <path d="m107.18 157.78c-14.928-1.3496-28.567-6.6368-40.84-15.831-4.0437-3.0294-11.598-10.587-14.636-14.641-8.496-11.34-13.463-23.413-15.443-37.537-0.63977-4.564-0.64733-15.239-0.01396-19.711 2.6068-18.407 10.31-33.761 23.232-46.307 12.226-11.87 27.032-19.024 44.418-21.461 4.6141-0.6468 15.225-0.6472 19.844-7.514e-4 15.502 2.1695 28.841 8.0671 40.644 17.97 3.4142 2.8646 8.8726 8.607 11.539 12.14 8.4476 11.191 13.342 23.034 15.455 37.395 0.72252 4.9105 0.65054 15.898-0.1378 21.034-2.1617 14.085-7.3658 26.238-16.057 37.498-2.3608 3.0586-9.9106 10.581-13.079 13.031-11.092 8.5775-23.377 13.8-37.43 15.912-3.9092 0.58745-13.534 0.86792-17.495 0.5098zm16.561-1.6986c17.067-2.5562 31.252-9.3112 42.776-20.371 2.2061-2.1172 2.7661-2.7952 2.577-3.1206-0.19634-0.33768-20.087-17.096-26.189-22.065-9.0116-7.338-33.424-28.025-33.646-28.51-0.15722-0.34506-0.20767-0.74227-0.11212-0.8827 0.0956-0.14043 2.1383-1.0409 4.5394-2.001 8.3242-3.3286 11.006-4.5035 16.235-7.112 3.3577-1.6752 5.5596-2.6215 6.0996-2.6215 1.0927 0 2.1454 1.0975 3.426 3.5719 1.3245 2.5591 2.5514 4.3589 3.3948 4.98 0.67259 0.49531 0.75001 0.50006 1.3836 0.08495 0.68558-0.44921 1.3291-1.4898 1.8136-2.9328 0.14944-0.44506 0.34294-3.7485 0.43001-7.3409l0.15831-6.5317 0.79375-0.84142c0.43656-0.46278 2.7145-2.1295 5.0621-3.7039 8.4072-5.6382 15.461-12.411 17.446-16.752 0.63051-1.3786 0.68979-1.7471 0.53077-3.2993-0.0985-0.96102-0.4065-2.2616-0.68454-2.8901-0.96323-2.1775-3.3607-2.6965-12.494-2.7045l-6.0142-0.0052 0.16449 1.2001c0.14009 1.0221 0.0736 1.2968-0.44806 1.8521-0.42439 0.45174-0.90315 0.65481-1.5586 0.66111-1.2369 0.01188-3.8212 1.8233-4.9056 3.4385-1.3057 1.9449-3.8587 4.2978-5.5672 5.1309-3.0366 1.4808-6.0591 1.2073-8.8918-0.8046-0.92943-0.66011-2.2681-1.4971-2.9748-1.8599-1.2377-0.63551-1.4048-0.65287-4.5565-0.47332-2.8299 0.16122-3.3635 0.12615-3.9525-0.25973-0.90866-0.59538-1.3062-1.6649-0.92766-2.4956 0.15963-0.35035 0.23559-0.69166 0.16879-0.75845-0.11605-0.11605-10.483 3.2176-14.279 4.5917-2.0253 0.73313-7.4878 1.4143-11.417 1.4236-4.3098 0.01024-10.493 1.0537-12.593 2.1251-1.4368 0.733-1.7249 1.5594-1.9112 5.4815-0.08478 1.7851-0.22763 3.3646-0.31744 3.5099-0.08981 0.14531-1.0306-0.4818-2.0906-1.3936s-6.483-5.5775-12.051-10.368c-8.2409-7.0905-10.203-8.6604-10.551-8.441-0.23502 0.14824-1.3028 1.5677-2.3728 3.1543-6.618 9.8131-10.708 20.385-12.528 32.386-0.8428 5.5558-0.841 15.898 0.0037 21.431 2.6902 17.622 10.295 32.47 22.832 44.582 5.8925 5.6927 11.952 9.9673 19.122 13.489 9.4347 4.6337 17.525 6.8549 28.861 7.9242 2.2482 0.21206 12.823-0.12068 15.214-0.47868zm-43.006-9.9418c-1.5591-0.63181-5.2706-5.7801-7.7443-10.742-1.4422-2.8931-4.0463-10.347-5.0733-14.522-0.92313-3.7525-2.4383-7.1435-3.6003-8.0576-0.51423-0.40449-1.0858-0.55709-2.0867-0.55709-1.9233 0-2.3491-0.52019-2.4756-3.0246-0.05331-1.0557 0.03197-2.7502 0.18951-3.7656 0.23562-1.5186 0.2063-2.2652-0.16527-4.2087-0.34602-1.8098-0.44106-3.6147-0.40621-7.7144l0.04549-5.3518 1.0805-3.8574c1.7758-6.3394 2.7244-8.5056 6.4058-14.627 2.7211-4.5251 4.7813-7.4817 7.2235-10.367 1.0471-1.2369 2.0458-2.5168 2.2195-2.8443 0.17369-0.32742 0.46044-0.59375 0.63722-0.59183 0.40792 0.0044 4.0256 3.066 4.0256 3.4068 0 0.32869-1.8946 1.6168-2.378 1.6168-0.66983 0-1.1939-1.1223-1.1939-2.5568 0-0.7594-0.09904-1.4419-0.22009-1.5167-0.1981-0.12243-1.5237 1.1507-3.1824 3.0564-0.50081 0.57539-0.55884 0.80117-0.3204 1.2467 0.16015 0.29924 0.52436 1.6774 0.80938 3.0626 0.53891 2.6192 1.3496 4.5331 2.4985 5.8984 0.72094 0.85678 2.2727 1.5574 5.4422 2.4571 1.0914 0.3098 3.1207 1.089 4.5095 1.7315 3.0828 1.4262 4.4201 1.6482 6.422 1.0663 1.1481-0.33375 1.6798-0.67227 2.3334-1.4857 0.4656-0.57938 0.95113-1.0534 1.079-1.0534 0.26359 0 10.352 8.6602 10.474 8.9912 0.0435 0.11811-0.31367 0.49032-0.79375 0.82713-0.48007 0.33681-1.5705 1.2718-2.4231 2.0778-1.7522 1.6563-2.7979 3.5277-4.5556 8.1531-1.2022 3.1635-2.3827 5.0124-5.1038 7.9929l-1.5667 1.716-3.3633 8e-3 -0.07804-1.9334c-0.05394-1.3363 0.08905-2.5424 0.46302-3.9056 0.68985-2.5145 0.69273-3.5991 0.01117-4.2159-0.47129-0.42651-0.65416-0.44272-1.6536-0.1466-2.1759 0.64466-6.305 2.9735-7.9151 4.4642-1.5025 1.391-2.5975 3.0818-2.9515 4.5573-0.2388 0.99533 0.67611 2.3104 2.0214 2.9055 1.8038 0.79793 5.6223 1.2024 8.0523 0.85302 1.1883-0.17086 5.0731-0.27434 9.239-0.24609l7.1886 0.0487 0.68277 0.64143c0.76518 0.71887 0.86376 1.5524 0.30898 2.6128-0.47322 0.90452-5.2575 5.5773-7.696 7.5166-2.7547 2.1908-4.2253 3.9348-7.2246 8.5679-2.5401 3.9237-6.1955 14.268-6.8107 19.273-0.13675 1.1126-0.37152 1.7485-0.80584 2.1828-0.66506 0.66506-0.76549 0.68807-1.5738 0.36053zm-4.6296-51.468c1.0592-0.54774 1.7882-1.562 1.9927-2.7723 0.13672-0.80926-0.03451-1.6364-0.79433-3.8369-0.94949-2.7498-0.96251-2.8415-0.65883-4.6419 0.29331-1.7389 0.27483-1.913-0.34736-3.2721-1.3407-2.9285-3.74-4.48-5.9908-3.8739-1.4896 0.4011-2.4735 1.3353-3.9735 3.7728-2.2078 3.5876-2.7193 7.7769-1.3396 10.972 0.79083 1.8313 2.2822 2.7998 5.1689 3.357 3.9219 0.75703 4.9514 0.80822 5.9429 0.2955zm36.916-20.536c-1.5758-0.82908-3.2007-2.5331-3.8459-4.0329-0.49042-1.14-0.55745-1.6985-0.46358-3.8626 0.1362-3.1403 0.46869-3.9243 3.7636-8.8755 1.3747-2.0657 2.6771-4.3533 2.94-5.1638 0.62666-1.9323 1.7778-3.0733 3.3365-3.307 2.8932-0.43387 7.4831 0.5444 9.4796 2.0204 0.85569 0.63264 1.8595 2.4233 1.8595 3.3172 0 0.29735-0.37576 1.242-0.83502 2.0993-0.82794 1.5454-0.83635 1.6001-0.99218 6.4534-0.15069 4.6928-0.18643 4.9446-0.86609 6.1006-0.84389 1.4354-2.6803 3.1866-4.0934 3.9034-0.56017 0.28416-1.7329 0.65951-2.606 0.83413-0.87312 0.17462-2.4058 0.48637-3.4059 0.69278-2.4258 0.50065-3.0262 0.47541-4.2709-0.17949zm-23.283-9.2936c-3.7615-3.2419-6.8815-6.0266-6.9332-6.1883-0.05175-0.16169 0.89257-1.1261 2.0985-2.1431 1.2059-1.017 3.1257-2.7538 4.2661-3.8596 1.5329-1.4862 2.4149-2.1238 3.3827-2.4453 1.2036-0.39977 1.3615-0.40057 1.9577-0.0099 0.35667 0.2337 0.85476 0.75067 1.1069 1.1488 0.25211 0.39816 1.0354 1.3788 1.7405 2.1791 2.2366 2.5384 3.1584 4.3067 3.2915 6.314 0.11171 1.6842 0.0666 1.8474-1.1072 4.0047-1.7152 3.1525-1.9709 3.7736-2.1951 5.3309-0.10861 0.75471-0.32617 1.4151-0.48346 1.4675-0.15729 0.05243-3.3636-2.5571-7.1251-5.799zm58.442-19.014c-1.1079-0.32114-2.6453-2.0697-3.0098-3.4234-0.59415-2.2065 0.53724-4.5801 2.6959-5.6558 2.8431-1.4168 5.541-0.4901 6.8586 2.3557 0.92826 2.0049 0.5867 3.8333-1.0262 5.4934-1.3692 1.4092-3.3656 1.8542-5.5185 1.2302z" fill="#e7282f"/>
   <path d="m79.404 144.76c-3.9842-3.7681-8.6363-13.578-11.249-23.722-1.0737-4.1688-2.1604-6.7737-3.3581-8.0496-0.58034-0.61825-0.89606-0.7276-2.1007-0.7276-2.6277 0-3.3108-1.5855-2.711-6.2924 0.28107-2.2055 0.2688-2.9616-0.08264-5.094-0.66763-4.0509-0.74032-5.473-0.47963-9.3833 0.21086-3.1629 0.42184-4.3077 1.4439-7.835 0.65833-2.2719 1.6987-5.2485 2.3119-6.6146 1.8378-4.0943 9.0583-15.757 9.9277-16.035 0.3988-0.12774 0.78384 0.91809 1.4033 3.8117 1.0657 4.9775 2.4087 6.4029 7.298 7.7453 1.1642 0.31964 3.3073 1.1328 4.7625 1.807 4.2007 1.9463 7.4279 1.86 9.2312-0.24688 0.48053-0.56138 0.96358-1.0207 1.0735-1.0207 0.24172 0 10.036 8.4177 10.146 8.7204 0.0428 0.11727-0.50101 0.63812-1.2085 1.1575-3.0519 2.2403-4.2895 4.0872-6.3182 9.4288-1.3022 3.4288-2.3321 5.1156-4.8105 7.8791-1.2156 1.3554-1.9983 1.9953-2.6679 2.1813-2.8345 0.78738-3.2459-0.42831-1.9524-5.7692 0.66821-2.7592 0.69322-3.0482 0.32042-3.7042-0.3512-0.61794-0.56695-0.7093-1.6415-0.6951-1.8326 0.02421-6.1664 2.2492-8.4413 4.3338-4.0074 3.6721-4.1118 6.9852-0.25629 8.1331 1.7246 0.51345 4.328 0.56846 14.728 0.31119 8.8935-0.22 10.186 0.0437 10.186 2.0776 0 0.77933-0.34342 1.2533-2.5732 3.5512-1.4153 1.4585-3.7072 3.572-5.0932 4.6967-2.753 2.2339-4.0919 3.7656-6.9363 7.935-2.9682 4.351-6.1048 12.742-7.2321 19.348-0.6605 3.8706-1.3892 4.2764-3.7202 2.0718zm-2.3139-50.579c0.84335-0.77287 0.97843-1.0695 1.0879-2.3891 0.10138-1.2225-0.02973-1.9418-0.69516-3.8139-0.73692-2.0733-0.81411-2.5786-0.76102-4.9823l0.05909-2.675-0.98801-1.4393c-1.5202-2.2146-2.369-2.7356-4.4565-2.7356-2.1697 0-3.0872 0.61929-4.8532 3.2757-1.6831 2.5317-2.0467 3.6783-2.2017 6.9429-0.20046 4.2213 0.69938 6.2857 3.272 7.5065 1.0422 0.49454 4.8843 1.1307 7.0485 1.1671 1.3771 0.02312 1.6188-0.06009 2.4882-0.85682zm79.706 27.695c-6.9008-5.7715-13.153-10.98-13.893-11.576-7.0311-5.6499-33.158-27.807-33.39-28.317-0.22905-0.50272-0.22425-0.70891 0.0202-0.86647 0.17641-0.11372 2.4043-1.0504 4.951-2.0816 9.1128-3.6899 10.782-4.4228 15.716-6.8996 2.7499-1.3806 5.3423-2.5199 5.7607-2.5318 1.0084-0.02867 1.9295 0.86397 2.9277 2.8374 1.06 2.0955 2.4769 4.3238 3.3229 5.2255 1.2654 1.3489 2.6589 0.76957 3.668-1.525 0.38602-0.87772 0.4884-2.1648 0.61005-7.6693 0.0942-4.2648 0.25483-6.8026 0.45204-7.1438 0.52053-0.90058 1.6826-1.8339 5.1139-4.107 4.4997-2.9809 6.9206-4.9008 11.042-8.7567 3.763-3.5204 6.3721-6.6729 7.1-8.5789 0.34936-0.91477 0.42025-1.6733 0.3086-3.3021-0.25323-3.6947-1.3016-4.8102-5.0122-5.3331-2.2978-0.32378-16.771-0.14324-25.08 0.31285-9.2418 0.50727-11.96 1.1492-28.707 6.7798-4.5112 1.5167-8.7974 2.9364-9.525 3.1549-1.6976 0.50975-7.795 1.176-10.768 1.1766-4.4269 0.0011-10.544 1.0625-12.27 2.1294-1.151 0.71136-1.3665 1.4415-1.5575 5.2772-0.09052 1.8178-0.2489 3.3876-0.35196 3.4884-0.15564 0.15217-21.553-18.014-23.581-20.02l-0.63966-0.63271 1.1688-1.5323c1.8404-2.4127 8.8415-9.3406 11.754-11.631 10.968-8.625 23.254-13.917 37.172-16.012 3.0944-0.46565 5.0903-0.58167 10.319-0.59979 6.8273-0.023666 9.5916 0.21558 15.221 1.3174 23.364 4.5729 43.49 19.959 53.969 41.258 5.1121 10.391 7.6002 20.249 7.9799 31.618 0.59359 17.773-4.989 35.235-15.733 49.212-2.3347 3.0373-4.8245 5.8208-5.2066 5.8208-0.17215 0-5.9591-4.7222-12.86-10.494zm-78.971-62.126c-0.441-1.0555-0.5072-2.6789-0.11904-2.9188 0.2433-0.15036 3.1794 2.1616 3.172 2.4977-0.0057 0.25906-1.8247 1.3386-2.2555 1.3386-0.22775 0-0.5866-0.4129-0.79746-0.91754z" fill="#030202"/>
  </g>
 </g>
</svg>
